{
    "asset" : {
        "generator" : "Khronos glTF Blender I/O v1.8.6",
        "version" : "2.0"
    },
    "scene" : 0,
    "scenes" : [
        {
            "name" : "Scene",
            "nodes" : [
                0,
                1,
                2
            ]
        }
    ],
    "nodes" : [
        {
            "mesh" : 0,
            "name" : "Curve",
            "scale" : [
                6.299898624420166,
                6.299898624420166,
                6.299898624420166
            ],
            "translation" : [
                -0.5773785710334778,
                0,
                0.11250321567058563
            ]
        },
        {
            "mesh" : 1,
            "name" : "Curve.001",
            "scale" : [
                6.299898624420166,
                6.299898624420166,
                6.299898624420166
            ],
            "translation" : [
                0.8984819054603577,
                0,
                0.11780363321304321
            ]
        },
        {
            "mesh" : 2,
            "name" : "Curve.002",
            "scale" : [
                6.299898624420166,
                6.299898624420166,
                6.299898624420166
            ],
            "translation" : [
                0.17708222568035126,
                0,
                0.030512526631355286
            ]
        }
    ],
    "materials" : [
        {
            "doubleSided" : true,
            "name" : "SVGMat",
            "pbrMetallicRoughness" : {
                "baseColorFactor" : [
                    0,
                    0.24228115379810333,
                    1,
                    1
                ],
                "metallicFactor" : 0,
                "roughnessFactor" : 0.4000000059604645
            }
        }
    ],
    "meshes" : [
        {
            "name" : "Curve",
            "primitives" : [
                {
                    "attributes" : {
                        "POSITION" : 0,
                        "NORMAL" : 1,
                        "TEXCOORD_0" : 2
                    },
                    "indices" : 3,
                    "material" : 0
                }
            ]
        },
        {
            "name" : "Curve.001",
            "primitives" : [
                {
                    "attributes" : {
                        "POSITION" : 4,
                        "NORMAL" : 5,
                        "TEXCOORD_0" : 6
                    },
                    "indices" : 7,
                    "material" : 0
                }
            ]
        },
        {
            "name" : "Curve.002",
            "primitives" : [
                {
                    "attributes" : {
                        "POSITION" : 8,
                        "NORMAL" : 9,
                        "TEXCOORD_0" : 10
                    },
                    "indices" : 11,
                    "material" : 0
                }
            ]
        }
    ],
    "accessors" : [
        {
            "bufferView" : 0,
            "componentType" : 5126,
            "count" : 1957,
            "max" : [
                0.03879503160715103,
                0.20000000298023224,
                0.05085235461592674
            ],
            "min" : [
                -0.06425487995147705,
                -0.20000000298023224,
                -0.07695016264915466
            ],
            "type" : "VEC3"
        },
        {
            "bufferView" : 1,
            "componentType" : 5126,
            "count" : 1957,
            "type" : "VEC3"
        },
        {
            "bufferView" : 2,
            "componentType" : 5126,
            "count" : 1957,
            "type" : "VEC2"
        },
        {
            "bufferView" : 3,
            "componentType" : 5123,
            "count" : 3564,
            "type" : "SCALAR"
        },
        {
            "bufferView" : 4,
            "componentType" : 5126,
            "count" : 1720,
            "max" : [
                0.04015132784843445,
                0.20000000298023224,
                0.050011005252599716
            ],
            "min" : [
                -0.06289857625961304,
                -0.20000000298023224,
                -0.07779151201248169
            ],
            "type" : "VEC3"
        },
        {
            "bufferView" : 5,
            "componentType" : 5126,
            "count" : 1720,
            "type" : "VEC3"
        },
        {
            "bufferView" : 6,
            "componentType" : 5126,
            "count" : 1720,
            "type" : "VEC2"
        },
        {
            "bufferView" : 7,
            "componentType" : 5123,
            "count" : 3276,
            "type" : "SCALAR"
        },
        {
            "bufferView" : 8,
            "componentType" : 5126,
            "count" : 1954,
            "max" : [
                0.05147743225097656,
                0.20000000298023224,
                0.06391210854053497
            ],
            "min" : [
                -0.08279253542423248,
                -0.20000000298023224,
                -0.06393556296825409
            ],
            "type" : "VEC3"
        },
        {
            "bufferView" : 9,
            "componentType" : 5126,
            "count" : 1954,
            "type" : "VEC3"
        },
        {
            "bufferView" : 10,
            "componentType" : 5126,
            "count" : 1954,
            "type" : "VEC2"
        },
        {
            "bufferView" : 11,
            "componentType" : 5123,
            "count" : 3288,
            "type" : "SCALAR"
        }
    ],
    "bufferViews" : [
        {
            "buffer" : 0,
            "byteLength" : 23484,
            "byteOffset" : 0
        },
        {
            "buffer" : 0,
            "byteLength" : 23484,
            "byteOffset" : 23484
        },
        {
            "buffer" : 0,
            "byteLength" : 15656,
            "byteOffset" : 46968
        },
        {
            "buffer" : 0,
            "byteLength" : 7128,
            "byteOffset" : 62624
        },
        {
            "buffer" : 0,
            "byteLength" : 20640,
            "byteOffset" : 69752
        },
        {
            "buffer" : 0,
            "byteLength" : 20640,
            "byteOffset" : 90392
        },
        {
            "buffer" : 0,
            "byteLength" : 13760,
            "byteOffset" : 111032
        },
        {
            "buffer" : 0,
            "byteLength" : 6552,
            "byteOffset" : 124792
        },
        {
            "buffer" : 0,
            "byteLength" : 23448,
            "byteOffset" : 131344
        },
        {
            "buffer" : 0,
            "byteLength" : 23448,
            "byteOffset" : 154792
        },
        {
            "buffer" : 0,
            "byteLength" : 15632,
            "byteOffset" : 178240
        },
        {
            "buffer" : 0,
            "byteLength" : 6576,
            "byteOffset" : 193872
        }
    ],
    "buffers" : [
        {
            "byteLength" : 200448,
            "uri" : "data:application/octet-stream;base64,"
        }
    ]
}
